<svg width="54" height="54" viewBox="0 0 54 54" fill="none" xmlns="http://www.w3.org/2000/svg">
<circle cx="27" cy="27" r="20.25" fill="#161313"/>
<path d="M48.451 48.5497C46.3051 50.7245 43.8437 52.562 41.15 54H53.9612V41.1612H53.9006C52.4707 43.8882 50.633 46.3798 48.451 48.5497Z" fill="#E11C83"/>
<path d="M54 12.8388V0H40.4945C46.2157 2.77282 50.9353 7.25943 54 12.8388Z" fill="white"/>
<path d="M0.192843 41.0673L0 40.9789V53.8233H12.8112C7.45086 50.9019 3.06355 46.4686 0.192843 41.0728V41.0673Z" fill="#F5E72B"/>
<path d="M11.8029 0.723471C12.2052 0.491545 12.6129 0.281677 13.0207 0.0718384H0.09375V13.3248C0.336199 12.8333 0.584166 12.3419 0.859676 11.8615C3.43837 7.22771 7.21962 3.37918 11.8029 0.723471Z" fill="#1EA8E0"/>
<path d="M49.2116 13.1424C46.6447 9.05228 43.0111 5.74311 38.7036 3.57263C34.9751 1.77712 30.8828 0.869972 26.7465 0.922043C22.7861 0.896543 18.8751 1.80449 15.3293 3.57263C14.8114 3.83216 14.3595 4.08065 13.9408 4.32362C10.1598 6.50952 7.01725 9.65123 4.8269 13.435L4.74977 13.5621C4.68915 13.6559 4.64506 13.7332 4.60098 13.8105C2.33082 17.8114 1.14895 22.3396 1.17364 26.942C1.1098 31.8188 2.4842 36.6059 5.12446 40.703C6.15845 42.2855 7.35521 43.7551 8.69507 45.0875C10.2315 46.6269 11.9506 47.9715 13.814 49.091C18.7746 52.0517 24.5815 53.2628 30.3088 52.5313C36.0361 51.7997 41.3542 49.1675 45.415 45.0544C46.7609 43.7138 47.9597 42.2329 48.9911 40.6367C51.5222 36.5082 52.8804 31.7655 52.9192 26.9203C52.958 22.075 51.6761 17.3111 49.2116 13.1424ZM43.2991 36.3737C41.6911 39.2229 39.3384 41.5788 36.494 43.1879C33.592 44.8436 30.3061 45.7044 26.9669 45.6839C24.5152 45.6898 22.0867 45.2084 19.8219 44.2675C17.557 43.3267 15.5009 41.945 13.7724 40.2026C12.0439 38.4601 10.6774 36.3914 9.75201 34.1162C8.82657 31.8409 8.36058 29.4044 8.38098 26.9475C8.33793 23.5598 9.18754 20.2207 10.844 17.2673C12.4721 14.3999 14.8372 12.0221 17.6932 10.3813C20.4994 8.70972 23.7024 7.82475 26.9669 7.81909C30.2841 7.82067 33.5414 8.70488 36.4058 10.3813C39.2699 11.9922 41.6504 14.3434 43.2991 17.19C44.9404 20.0945 45.7827 23.3835 45.7401 26.7211C45.7817 30.0971 44.9401 33.4251 43.2991 36.3737Z" fill="white"/>
</svg>
