<svg width="24" height="24" viewBox="0 0 24 24" fill="none" xmlns="http://www.w3.org/2000/svg">
<mask id="mask0_874_52" style="mask-type:alpha" maskUnits="userSpaceOnUse" x="0" y="0" width="24" height="24">
<rect width="24" height="24" fill="#D9D9D9"/>
</mask>
<g mask="url(#mask0_874_52)">
<path d="M6.75 22C6 22 5.35417 21.7458 4.8125 21.2375C4.27083 20.7292 4 20.1 4 19.35V5.39999C4 4.76665 4.19583 4.19999 4.5875 3.69999C4.97917 3.19999 5.49167 2.88332 6.125 2.74999L16 0.799988V16.8L6.525 18.7C6.375 18.7333 6.25 18.8125 6.15 18.9375C6.05 19.0625 6 19.2 6 19.35C6 19.5333 6.075 19.6875 6.225 19.8125C6.375 19.9375 6.55 20 6.75 20H18V3.99999H20V22H6.75ZM7 16.575L9 16.175V4.22499L7 4.62499V16.575Z" fill="#F5E72B"/>
</g>
</svg>
