<svg width="20" height="20" viewBox="0 0 20 20" fill="none" xmlns="http://www.w3.org/2000/svg">
<path d="M6 7V5H15V7H6ZM6 10V8H15V10H6ZM11 20V16.925L16.525 11.425C16.675 11.275 16.8417 11.1667 17.025 11.1C17.2083 11.0333 17.3917 11 17.575 11C17.775 11 17.9667 11.0375 18.15 11.1125C18.3333 11.1875 18.5 11.3 18.65 11.45L19.575 12.375C19.7083 12.525 19.8125 12.6917 19.8875 12.875C19.9625 13.0583 20 13.2417 20 13.425C20 13.6083 19.9667 13.7958 19.9 13.9875C19.8333 14.1792 19.725 14.35 19.575 14.5L14.075 20H11ZM17.575 14.4L18.5 13.425L17.575 12.5L16.625 13.45L17.575 14.4ZM3 20C2.16667 20 1.45833 19.7083 0.875 19.125C0.291667 18.5417 0 17.8333 0 17V14H3V0H18V9.025C17.6667 8.99167 17.3292 9.00417 16.9875 9.0625C16.6458 9.12083 16.3167 9.225 16 9.375V2H5V14H11L9 16V20H3Z" fill="#F5E72B"/>
</svg>
