<svg width="40" height="40" viewBox="0 0 40 40" fill="none" xmlns="http://www.w3.org/2000/svg">
<mask id="mask0_1730_14" style="mask-type:alpha" maskUnits="userSpaceOnUse" x="0" y="0" width="40" height="40">
<rect width="40" height="40" fill="#D9D9D9"/>
</mask>
<g mask="url(#mask0_1730_14)">
<path d="M11.25 35H7.77775C7.01386 35 6.35993 34.728 5.81596 34.184C5.27199 33.6401 5 32.9861 5 32.2222V28.75C5 28.3565 5.13357 28.0266 5.40071 27.7604C5.66785 27.4942 5.99886 27.3611 6.39375 27.3611C6.78864 27.3611 7.11803 27.4942 7.38192 27.7604C7.64581 28.0266 7.77775 28.3565 7.77775 28.75V32.2222H11.25C11.6435 32.2222 11.9734 32.3558 12.2396 32.623C12.5058 32.8901 12.6389 33.2211 12.6389 33.616C12.6389 34.0109 12.5058 34.3403 12.2396 34.6042C11.9734 34.8681 11.6435 35 11.25 35ZM32.2222 35H28.75C28.3565 35 28.0266 34.8664 27.7604 34.5993C27.4942 34.3322 27.3611 34.0011 27.3611 33.6063C27.3611 33.2114 27.4942 32.882 27.7604 32.6181C28.0266 32.3542 28.3565 32.2222 28.75 32.2222H32.2222V28.75C32.2222 28.3565 32.3558 28.0266 32.623 27.7604C32.8901 27.4942 33.2211 27.3611 33.616 27.3611C34.0109 27.3611 34.3403 27.4942 34.6042 27.7604C34.8681 28.0266 35 28.3565 35 28.75V32.2222C35 32.9861 34.728 33.6401 34.184 34.184C33.6401 34.728 32.9861 35 32.2222 35ZM20 32.2222C16.6111 32.2222 13.7268 31.0324 11.3472 28.6528C8.96757 26.2732 7.77775 23.3889 7.77775 20C7.77775 16.6111 8.96757 13.7268 11.3472 11.3472C13.7268 8.96757 16.6111 7.77775 20 7.77775C23.3889 7.77775 26.2732 8.96757 28.6528 11.3472C31.0324 13.7268 32.2222 16.6111 32.2222 20C32.2222 23.3889 31.0324 26.2732 28.6528 28.6528C26.2732 31.0324 23.3889 32.2222 20 32.2222ZM20 29.4445C22.613 29.4445 24.8403 28.5236 26.682 26.682C28.5236 24.8403 29.4445 22.613 29.4445 20C29.4445 17.387 28.5236 15.1597 26.682 13.318C24.8403 11.4764 22.613 10.5555 20 10.5555C17.387 10.5555 15.1597 11.4764 13.318 13.318C11.4764 15.1597 10.5555 17.387 10.5555 20C10.5555 22.613 11.4764 24.8403 13.318 26.682C15.1597 28.5236 17.387 29.4445 20 29.4445ZM5 7.77775C5 7.01386 5.27199 6.35993 5.81596 5.81596C6.35993 5.27199 7.01386 5 7.77775 5H11.25C11.6435 5 11.9734 5.13357 12.2396 5.40071C12.5058 5.66785 12.6389 5.99886 12.6389 6.39375C12.6389 6.78864 12.5058 7.11803 12.2396 7.38192C11.9734 7.64581 11.6435 7.77775 11.25 7.77775H7.77775V11.25C7.77775 11.6435 7.64418 11.9734 7.37704 12.2396C7.1099 12.5058 6.77889 12.6389 6.384 12.6389C5.98911 12.6389 5.65972 12.5058 5.39583 12.2396C5.13194 11.9734 5 11.6435 5 11.25V7.77775ZM33.6063 12.6389C33.2114 12.6389 32.882 12.5058 32.6181 12.2396C32.3542 11.9734 32.2222 11.6435 32.2222 11.25V7.77775H28.75C28.3565 7.77775 28.0266 7.64418 27.7604 7.37704C27.4942 7.1099 27.3611 6.77889 27.3611 6.384C27.3611 5.98911 27.4942 5.65972 27.7604 5.39583C28.0266 5.13194 28.3565 5 28.75 5H32.2222C32.9861 5 33.6401 5.27199 34.184 5.81596C34.728 6.35993 35 7.01386 35 7.77775V11.25C35 11.6435 34.8664 11.9734 34.5993 12.2396C34.3322 12.5058 34.0011 12.6389 33.6063 12.6389Z" fill="#F5F7F8"/>
</g>
</svg>
