<svg width="32" height="32" viewBox="0 0 32 32" fill="none" xmlns="http://www.w3.org/2000/svg">
<path fill-rule="evenodd" clip-rule="evenodd" d="M16 32C24.8366 32 32 24.8366 32 16C32 7.16344 24.8366 0 16 0C7.16344 0 0 7.16344 0 16C0 24.8366 7.16344 32 16 32ZM13.2083 24.9143V16.0762V15.9238H11.6339C11.497 15.9238 11.4286 15.8476 11.4286 15.6952V12.9524C11.4286 12.8 11.497 12.7238 11.6339 12.7238H13.2083V10.1333C13.2083 8.30476 14.6458 6.85714 16.4256 6.85714H19.4375C19.5744 6.85714 19.6429 6.93333 19.6429 7.08571V9.75238C19.6429 9.90476 19.5744 9.98095 19.369 9.98095H17.5893C17.1101 9.98095 16.7679 10.3619 16.7679 10.819V12.7238H19.3006C19.4375 12.7238 19.506 12.8 19.506 12.9524L19.3006 15.6952C19.3006 15.8476 19.2321 15.9238 19.0952 15.9238H16.7679V24.9143C16.7679 25.0667 16.6994 25.1429 16.5625 25.1429H13.4137C13.2768 25.1429 13.2083 25.0667 13.2083 24.9143Z" fill="white"/>
</svg>
