<svg width="24" height="24" viewBox="0 0 24 24" fill="none" xmlns="http://www.w3.org/2000/svg">
<mask id="mask0_874_77" style="mask-type:alpha" maskUnits="userSpaceOnUse" x="0" y="0" width="24" height="24">
<rect width="24" height="24" fill="#D9D9D9"/>
</mask>
<g mask="url(#mask0_874_77)">
<path d="M5 18.85C5.9 17.9667 6.94583 17.2708 8.1375 16.7625C9.32917 16.2542 10.6167 16 12 16C13.3833 16 14.6708 16.2542 15.8625 16.7625C17.0542 17.2708 18.1 17.9667 19 18.85V6H5V18.85ZM12 14C11.0333 14 10.2083 13.6583 9.525 12.975C8.84167 12.2917 8.5 11.4667 8.5 10.5C8.5 9.53333 8.84167 8.70833 9.525 8.025C10.2083 7.34167 11.0333 7 12 7C12.9667 7 13.7917 7.34167 14.475 8.025C15.1583 8.70833 15.5 9.53333 15.5 10.5C15.5 11.4667 15.1583 12.2917 14.475 12.975C13.7917 13.6583 12.9667 14 12 14ZM5 22C4.45 22 3.97917 21.8042 3.5875 21.4125C3.19583 21.0208 3 20.55 3 20V6C3 5.45 3.19583 4.97917 3.5875 4.5875C3.97917 4.19583 4.45 4 5 4H6V2H8V4H16V2H18V4H19C19.55 4 20.0208 4.19583 20.4125 4.5875C20.8042 4.97917 21 5.45 21 6V20C21 20.55 20.8042 21.0208 20.4125 21.4125C20.0208 21.8042 19.55 22 19 22H5Z" fill="#F5E72B"/>
</g>
</svg>
