<svg width="32" height="32" viewBox="0 0 32 32" fill="none" xmlns="http://www.w3.org/2000/svg">
<path fill-rule="evenodd" clip-rule="evenodd" d="M16 32C24.8366 32 32 24.8366 32 16C32 7.16344 24.8366 0 16 0C7.16344 0 0 7.16344 0 16C0 24.8366 7.16344 32 16 32ZM20.5714 16C20.5714 18.5247 18.5247 20.5714 16 20.5714C13.4753 20.5714 11.4286 18.5247 11.4286 16C11.4286 13.4753 13.4753 11.4286 16 11.4286C18.5247 11.4286 20.5714 13.4753 20.5714 16ZM19.0476 16C19.0476 17.6831 17.6831 19.0476 16 19.0476C14.3168 19.0476 12.9524 17.6831 12.9524 16C12.9524 14.3168 14.3168 12.9524 16 12.9524C17.6831 12.9524 19.0476 14.3168 19.0476 16ZM20.5714 10.6667C20.1506 10.6667 19.8095 11.0078 19.8095 11.4286C19.8095 11.8494 20.1506 12.1905 20.5714 12.1905C20.9922 12.1905 21.3333 11.8494 21.3333 11.4286C21.3333 11.0078 20.9922 10.6667 20.5714 10.6667ZM7.61905 14.9333C7.61905 12.3731 7.61905 11.093 8.1173 10.1151C8.55558 9.25492 9.25492 8.55558 10.1151 8.1173C11.093 7.61905 12.3731 7.61905 14.9333 7.61905H17.0667C19.6269 7.61905 20.907 7.61905 21.8849 8.1173C22.7451 8.55558 23.4444 9.25492 23.8827 10.1151C24.381 11.093 24.381 12.3731 24.381 14.9333V17.0667C24.381 19.6269 24.381 20.907 23.8827 21.8849C23.4444 22.7451 22.7451 23.4444 21.8849 23.8827C20.907 24.381 19.6269 24.381 17.0667 24.381H14.9333C12.3731 24.381 11.093 24.381 10.1151 23.8827C9.25492 23.4444 8.55558 22.7451 8.1173 21.8849C7.61905 20.907 7.61905 19.6269 7.61905 17.0667V14.9333ZM14.9333 9.14286H17.0667C18.372 9.14286 19.2592 9.14404 19.9451 9.20008C20.6132 9.25466 20.9548 9.35359 21.1931 9.47502C21.7666 9.76721 22.2328 10.2334 22.525 10.8069C22.6464 11.0452 22.7454 11.3868 22.7999 12.0549C22.8559 12.7408 22.8571 13.6281 22.8571 14.9333V17.0667C22.8571 18.372 22.8559 19.2592 22.7999 19.9451C22.7454 20.6132 22.6464 20.9548 22.525 21.1931C22.2328 21.7666 21.7666 22.2328 21.1931 22.525C20.9548 22.6464 20.6132 22.7454 19.9451 22.7999C19.2592 22.8559 18.372 22.8571 17.0667 22.8571H14.9333C13.6281 22.8571 12.7408 22.8559 12.0549 22.7999C11.3868 22.7454 11.0452 22.6464 10.8069 22.525C10.2334 22.2328 9.76721 21.7666 9.47502 21.1931C9.35359 20.9548 9.25466 20.6132 9.20008 19.9451C9.14404 19.2592 9.14286 18.372 9.14286 17.0667V14.9333C9.14286 13.6281 9.14404 12.7408 9.20008 12.0549C9.25466 11.3868 9.35359 11.0452 9.47502 10.8069C9.76721 10.2334 10.2334 9.76721 10.8069 9.47502C11.0452 9.35359 11.3868 9.25466 12.0549 9.20008C12.7408 9.14404 13.6281 9.14286 14.9333 9.14286Z" fill="white"/>
</svg>
