<svg width="300" height="63" viewBox="0 0 300 63" fill="none" xmlns="http://www.w3.org/2000/svg">
<path d="M185.292 56.4472C182.804 58.9719 179.947 61.1027 176.819 62.7668H191.676V47.8802L191.613 47.9122C189.948 51.0603 187.817 53.9378 185.292 56.4472Z" fill="#E11C83"/>
<path d="M191.721 15.04V0.140564H176.058C179.586 1.82912 182.802 4.10689 185.567 6.87634C188.007 9.28021 190.081 12.0309 191.721 15.04Z" fill="white"/>
<path d="M129.319 47.7775L129.095 47.6687V62.5617H143.953C137.743 59.1647 132.658 54.0268 129.319 47.7775Z" fill="#F5E72B"/>
<path d="M142.784 0.998323C143.25 0.729404 143.723 0.486099 144.196 0.236389H129.204V15.6032C129.485 15.0333 129.773 14.4635 130.092 13.9064C133.082 8.53422 137.467 4.07357 142.784 0.998323Z" fill="#1EA8E0"/>
<path d="M125.14 10.6177V2.94516H92.8425L92.7912 60.0133H101.085V44.2018H119.327V36.5676H101.085V10.6177H125.14Z" fill="white"/>
<path d="M8.14655 44.2212H25.728V36.555H8.14655V10.6817H35.3167C36.4089 8.99878 37.6765 7.43557 39.0983 6.01817L39.9252 5.14295C40.6764 4.38178 41.4658 3.65896 42.2903 2.97726H0V60.0518H31.5799V52.5262H8.14655V44.2212Z" fill="white"/>
<path d="M81.1258 7.83875C78.6629 5.3471 75.7259 3.37038 72.4868 2.02439C69.2477 0.678397 65.7717 -0.00980233 62.2624 0.000105476H62.1727C58.6518 0.0023723 55.1668 0.705372 51.9221 2.06787C48.6774 3.43037 45.7384 5.42493 43.2773 7.93457L43.1042 8.11345L42.6492 8.59898L42.553 8.70119C38.082 13.5164 35.5687 19.8176 35.5025 26.3781L35.4512 60.0261H43.7196L43.6747 26.4547C43.7144 21.7266 45.5942 17.1986 48.9177 13.8247L49.0972 13.6395C51.6512 11.0417 54.9236 9.26102 58.4971 8.52439C62.0706 7.78776 65.7832 8.1286 69.1615 9.50345C72.5399 10.8783 75.4308 13.2249 77.4658 16.2439C79.5007 19.2629 80.5875 22.8176 80.5874 26.4547V60.0261H88.7596V26.4547C88.7897 19.4865 86.0441 12.7911 81.1258 7.83875Z" fill="white"/>
<path d="M186.339 15.3579C185.081 13.3519 183.593 11.4994 181.903 9.8383C179.628 7.57557 177 5.6944 174.122 4.26756C169.783 2.19093 165.02 1.14149 160.207 1.2011C155.596 1.1826 151.046 2.24853 146.926 4.31228C146.33 4.61254 145.798 4.89363 145.318 5.17472C140.918 7.70342 137.26 11.338 134.71 15.7157L134.62 15.8626L134.447 16.1501C131.808 20.7813 130.435 26.0222 130.467 31.3483C130.393 36.9872 131.99 42.5225 135.056 47.2619C136.259 49.0942 137.654 50.7945 139.216 52.3344C140.999 54.1171 142.997 55.6728 145.164 56.966C150.932 60.3968 157.688 61.8011 164.352 60.9546C171.015 60.108 177.202 57.0594 181.923 52.296C183.488 50.7452 184.883 49.0318 186.082 47.1852C189.027 42.409 190.606 36.9222 190.652 31.3167C190.697 25.7113 189.206 20.1999 186.339 15.3771V15.3579ZM179.468 42.2342C177.601 45.5332 174.863 48.2596 171.552 50.1176C168.177 52.0352 164.355 53.0333 160.47 53.0115C157.618 53.0167 154.793 52.4584 152.159 51.3689C149.525 50.2794 147.134 48.6804 145.123 46.6642C143.113 44.648 141.524 42.2546 140.447 39.6225C139.37 36.9903 138.828 34.1715 138.85 31.3291C138.801 27.41 139.789 23.5472 141.715 20.1301C143.619 16.8417 146.35 14.1046 149.639 12.1889C152.928 10.2732 156.661 9.24509 160.47 9.20585C164.33 9.20838 168.121 10.2312 171.456 12.1701C174.787 14.0321 177.554 16.7528 179.468 20.0471C181.38 23.4041 182.362 27.2073 182.314 31.0672C182.36 34.9734 181.379 38.8235 179.468 42.2342Z" fill="white"/>
<path d="M244.326 6.86759C242.928 5.8374 241.439 4.93509 239.878 4.17166C235.388 2.03422 230.464 0.95652 225.488 1.02214C216.727 1.02214 209.33 3.89057 203.497 9.55713C200.645 12.2656 198.389 15.5354 196.871 19.1591C195.354 22.7828 194.609 26.6813 194.684 30.6071C194.684 38.4713 197.132 45.3006 201.952 50.8649C204.402 53.7054 207.402 56.0239 210.772 57.6814C215.324 59.72 220.253 60.7899 225.244 60.8229C230.234 60.8559 235.177 59.8512 239.756 57.8731C242.804 56.4729 245.586 54.558 247.98 52.2129L248.3 51.8999L248.621 52.2129C254.389 57.9625 261.606 60.8245 269.996 60.8245C272.504 60.8371 275.004 60.5519 277.444 59.9749C283.919 58.3327 289.656 54.5793 293.743 49.312C297.831 44.0447 300.033 37.5661 300 30.9074C300 22.5385 297.051 15.3898 291.244 9.65296C285.437 3.91612 278.175 1.02214 269.548 1.02214C265.611 1.00858 261.711 1.78113 258.078 3.29419C254.445 4.80725 251.153 7.03018 248.396 9.83183C248.396 9.83183 246.172 12.2339 245.249 13.518C244.451 14.7292 243.727 15.9879 243.083 17.2872C242.954 17.5427 242.826 17.8046 242.704 18.0666C240.772 22.1627 239.78 26.6366 239.801 31.1629C239.756 35.7457 240.797 40.2744 242.839 44.3806C242.942 44.5915 243.051 44.8023 243.16 45.0195L243.313 45.307L243.089 45.5433L242.73 45.9139C242.422 46.2269 242.089 46.5527 241.794 46.8274L241.474 47.1085C241.256 47.3002 241.044 47.4918 240.833 47.6707L240.448 47.9901C240.25 48.1498 240.051 48.3095 239.852 48.4565L239.423 48.7695C239.231 48.91 239.038 49.0506 238.84 49.1784L238.391 49.4786L237.801 49.8428L237.333 50.1175L236.744 50.4369C236.583 50.5199 236.423 50.6094 236.256 50.686C236.09 50.7627 235.859 50.8777 235.654 50.9671L235.16 51.1971L234.519 51.4399C234.353 51.5102 234.186 51.5804 234.013 51.6379L233.308 51.8871C232.988 51.9893 232.667 52.0851 232.34 52.1746L231.744 52.3343L231.103 52.4684L230.546 52.5898L229.905 52.692L229.328 52.7815L228.687 52.8581L228.078 52.9156L227.437 52.9603H226.764H226.161H225.886H225.315H224.918C224.482 52.9603 224.046 52.9603 223.604 52.8901L223.207 52.8581C221.294 52.6887 219.409 52.2897 217.592 51.6699C217.034 51.4782 216.509 51.2738 216.021 51.031C215.637 50.8649 215.252 50.686 214.881 50.5008C212.93 49.4958 211.143 48.2036 209.58 46.6677C205.253 42.4641 203.17 37.3533 203.17 31.0543C203.121 27.1635 204.109 23.3294 206.035 19.9448C207.974 16.6351 210.776 13.9108 214.143 12.0614C217.624 10.0956 221.559 9.06942 225.559 9.08438C229.14 9.04443 232.683 9.81324 235.923 11.3331C237.221 11.9541 238.451 12.7054 239.596 13.5755C240.982 11.2115 242.564 8.96771 244.326 6.86759ZM251.037 19.9448C252.942 16.6568 255.673 13.9199 258.961 12.0033C262.25 10.0867 265.982 9.05653 269.791 9.01411C273.65 9.01594 277.439 10.0389 280.771 11.9784C281.616 12.4614 282.429 12.9969 283.207 13.5819C285.477 15.2733 287.379 17.4078 288.796 19.8553C290.219 22.3318 291.124 25.0701 291.456 27.9048C291.577 28.8925 291.637 29.8867 291.635 30.8818C291.682 34.7861 290.701 38.6344 288.789 42.0425C286.922 45.3546 284.183 48.0958 280.867 49.9705C279.331 50.842 277.696 51.5262 275.996 52.0085C275.438 52.1682 274.868 52.3087 274.291 52.4237C272.813 52.7128 271.31 52.8583 269.804 52.8581C266.952 52.865 264.126 52.3079 261.491 51.219C258.856 50.1301 256.464 48.5311 254.454 46.5146C252.443 44.498 250.854 42.104 249.778 39.4711C248.702 36.8381 248.16 34.0186 248.185 31.1757C248.125 27.2468 249.109 23.3721 251.037 19.9448Z" fill="white"/>
</svg>
