<svg width="32" height="32" viewBox="0 0 32 32" fill="none" xmlns="http://www.w3.org/2000/svg">
<path d="M15.9859 32C7.07154 31.9931 -0.0206095 24.8747 4.49994e-05 15.9538C0.0206995 7.05194 7.16027 -0.0312649 16.0815 0.000103787C24.9224 0.0314725 31.9923 7.12998 32 15.9828C32.0076 24.8984 24.9017 32.0069 15.9859 32ZM16.4778 6.68011C16.4778 7.38016 16.4778 7.90119 16.4778 8.42222C16.4785 11.7374 16.4892 15.0533 16.4716 18.3684C16.4686 18.9361 16.4303 19.529 16.2651 20.0661C15.8443 21.4356 14.3985 22.2895 13.0537 22.0431C11.5742 21.7723 10.5453 20.5175 10.5882 19.0378C10.6325 17.5245 11.7119 16.3692 13.2281 16.2215C13.6557 16.1802 14.0849 16.1603 14.5546 16.1274V12.9776C10.6295 12.6011 7.53588 15.1068 7.29338 18.7548C7.07154 22.102 9.73061 25.1249 13.056 25.3047C16.7463 25.5044 19.6501 22.8281 19.7144 19.1304C19.7488 17.1419 19.719 15.1519 19.7289 13.1627C19.7305 12.797 19.784 12.4313 19.8054 12.1612C21.2336 12.7373 22.5762 13.279 24.0664 13.8804C24.2966 12.5629 24.4596 11.6249 24.6378 10.6058C22.4645 10.211 21.0577 8.97079 20.0005 7.23327C19.8345 6.96013 19.3977 6.73672 19.0642 6.70382C18.2816 6.62655 17.486 6.67934 16.4755 6.67934L16.4778 6.68011Z" fill="white"/>
</svg>
